<svg width="103" height="152" viewBox="0 0 103 152" fill="none" xmlns="http://www.w3.org/2000/svg">
<g clip-path="url(#clip0_1726_1173)">
<path d="M14.7223 116.903L18.9698 119.682C17.9817 120.958 16.7062 121.984 15.2465 122.677C13.7868 123.369 12.1839 123.71 10.5677 123.671C4.42411 123.671 0 119.127 0 113.017C0 106.907 4.42411 102.4 10.5677 102.4C12.1809 102.362 13.7808 102.7 15.2396 103.388C16.6984 104.076 17.9758 105.094 18.9698 106.361L14.7223 109.117C14.2204 108.509 13.5841 108.026 12.8633 107.704C12.1424 107.383 11.3567 107.232 10.5677 107.264C6.97076 107.232 5.11189 110.103 5.11189 113.008C5.11189 115.912 6.97076 118.816 10.5723 118.816C11.3663 118.846 12.156 118.687 12.8771 118.355C13.5982 118.023 14.2304 117.525 14.7223 116.903Z" fill="#00AEEF"/>
<path d="M26.27 102.743V123.272H21.1953V102.743H26.27Z" fill="#00AEEF"/>
<path d="M41.6153 123.272L38.1067 116.412H34.9094V123.272H29.8301V102.743H37.8139C43.0978 102.743 45.8024 105.731 45.8024 109.839C45.8285 110.952 45.542 112.049 44.9754 113.007C44.4088 113.966 43.5846 114.747 42.5959 115.264L47.0153 123.272H41.6153ZM34.9094 112.188H37.8139C39.301 112.188 40.6673 111.6 40.6673 109.839C40.6673 108.315 39.5101 107.491 37.8139 107.491H34.9094V112.188Z" fill="#00AEEF"/>
<path d="M66.9194 119.46L68.7782 121.28L66.0736 123.921L64.1311 121.998C62.3927 123.097 60.3709 123.667 58.3128 123.638C52.1692 123.638 47.7451 119.094 47.7451 112.984C47.7451 106.875 52.1692 102.368 58.3128 102.368C64.4564 102.368 68.8805 106.912 68.8805 112.984C68.9153 115.293 68.2301 117.556 66.9194 119.46ZM60.5388 118.404L57.955 115.852L60.655 113.211L63.2063 115.764C63.6018 114.89 63.8047 113.942 63.8011 112.984C63.8011 110.08 61.9422 107.208 58.3407 107.208C54.7391 107.208 52.8802 110.08 52.8802 112.984C52.8802 115.889 54.7391 118.793 58.3407 118.793C59.0872 118.806 59.8291 118.674 60.5249 118.404H60.5388Z" fill="#00AEEF"/>
<path d="M84.5782 118.552V123.272H71.7148V102.743H76.8267V118.552H84.5782Z" fill="#00AEEF"/>
<path d="M100.295 118.552V123.272H87.2363V102.743H100.03V107.491H92.311V110.659H99.0773V115.148H92.311V118.552H100.295Z" fill="#00AEEF"/>
<path d="M61.7513 43.643L59.5811 41.5493L79.8753 20.6311C80.0131 20.4886 80.1778 20.3745 80.3598 20.2955C80.5419 20.2165 80.7379 20.1741 80.9364 20.1706C81.135 20.1672 81.3323 20.2028 81.517 20.2755C81.7017 20.3481 81.8703 20.4564 82.013 20.594L103.004 40.8221L100.904 42.9899L80.9999 23.7994L61.7513 43.643Z" fill="#00AEEF"/>
<path d="M87.427 39.426L85.3271 41.5903L94.0763 50.0235L96.1761 47.8592L87.427 39.426Z" fill="#00AEEF"/>
<path d="M68.63 50.2713L66.4551 48.1777L79.9319 34.2816C80.2101 33.9952 80.5908 33.8304 80.9907 33.8235C81.3906 33.8165 81.7769 33.968 82.0649 34.2445L87.4278 39.4139L85.3319 41.5817L81.0519 37.4545L68.63 50.2713Z" fill="#00AEEF"/>
<path d="M99.4281 40.1909L92.9541 46.8638L95.1255 48.9568L101.6 42.2839L99.4281 40.1909Z" fill="#00AEEF"/>
<path d="M62.968 40.6613L60.8682 42.8257L67.5628 49.2786L69.6627 47.1142L62.968 40.6613Z" fill="#00AEEF"/>
<path d="M46.2997 85.9844C37.8462 85.9802 29.5804 83.5001 22.5294 78.8522C15.4784 74.2044 9.95317 67.5937 6.64036 59.8418C3.32755 52.0899 2.37322 43.5385 3.896 35.2505C5.41877 26.9624 9.35149 19.3031 15.2054 13.2245C19.1179 9.13828 23.8047 5.86627 28.9945 3.59786C34.1843 1.32946 39.774 0.109722 45.4399 0.00928058C57.9873 -0.231585 68.9732 4.21979 77.1569 12.928C77.5075 13.2999 77.7027 13.7911 77.7027 14.3014C77.7027 14.8117 77.5075 15.3029 77.1569 15.6748L70.1862 23.049C70.0051 23.2422 69.7875 23.3978 69.5458 23.5067C69.3041 23.6157 69.0432 23.6758 68.7781 23.6836C68.233 23.6864 67.7087 23.475 67.3188 23.0953C62.7787 18.5575 56.8547 15.6518 50.4775 14.8347C44.1004 14.0176 37.6317 15.3355 32.0877 18.5812C26.5438 21.827 22.2388 26.8167 19.8492 32.7663C17.4597 38.7159 17.121 45.2882 18.8863 51.4505C20.6517 57.6128 24.421 63.0159 29.6022 66.8108C34.7833 70.6057 41.0825 72.5773 47.51 72.4158C53.9376 72.2543 60.1292 69.9689 65.1119 65.9187C70.0946 61.8685 73.5861 56.283 75.0378 50.0398C75.1209 49.6771 75.3044 49.3449 75.5676 49.081L79.9406 44.6759C80.3167 44.2971 80.828 44.0823 81.3626 44.0784C81.6258 44.0781 81.8864 44.1295 82.1296 44.2296C82.3728 44.3298 82.5938 44.4767 82.78 44.662L88.0267 49.8592C88.2639 50.0945 88.4387 50.3849 88.5352 50.7043C88.6318 51.0237 88.647 51.3621 88.5797 51.6888C86.598 61.2259 81.4274 69.8102 73.9139 76.037C66.4005 82.2638 56.9891 85.7644 47.2198 85.9658L46.2997 85.9844ZM46.4577 3.99746C46.1463 3.99746 45.8349 3.99746 45.5282 3.99746C37.7896 4.14985 30.2704 6.58779 23.9228 11.0025C17.5752 15.4173 12.6848 21.6103 9.87076 28.7972C7.05674 35.9842 6.44573 43.8419 8.1151 51.3752C9.78448 58.9085 13.6592 65.7786 19.2485 71.1155C26.2138 77.7754 35.4036 81.6332 45.0504 81.947C54.6972 82.2608 64.1198 79.0085 71.506 72.8155C77.9368 67.4098 82.4558 60.0884 84.3972 51.9297L81.3673 48.9281L78.8113 51.5035C77.0573 58.5196 73.0325 64.7639 67.3596 69.2704C61.6866 73.7769 54.6818 76.2943 47.4289 76.4331H46.7411C38.0534 76.405 29.7261 72.968 23.5618 66.8659C17.3974 60.7638 13.8919 52.4875 13.8039 43.8285C13.716 35.1694 17.0526 26.8241 23.0917 20.5988C29.1308 14.3735 37.3865 10.7691 46.072 10.5657C54.3766 10.3652 62.4472 13.3193 68.6479 18.8292L72.8955 14.3222C65.8782 7.58728 56.793 4.01599 46.4716 4.01599L46.4577 3.99746Z" fill="#00AEEF"/>
<path d="M0.929688 141.453C0.929688 135.431 5.16326 131.124 10.9536 131.124C12.5571 131.094 14.143 131.46 15.5712 132.187C16.9994 132.914 18.2258 133.981 19.142 135.293L19.2256 135.404L14.2996 138.706L14.216 138.623C13.8471 138.111 13.3572 137.698 12.7897 137.42C12.2223 137.142 11.5948 137.008 10.9629 137.03C8.51388 137.03 6.87343 138.794 6.87343 141.444C6.87343 143.76 8.29081 146.141 10.9629 146.141C12.7753 146.141 13.9743 145.455 14.5831 144.089H10.3542V139.79H20.2852V151.407H17.5852L16.9717 149.128C15.5218 150.865 13.5189 151.778 10.9304 151.778C5.16326 151.769 0.929688 147.415 0.929688 141.453ZM1.18063 141.453C1.18063 147.289 5.30268 151.532 10.9397 151.532C13.5049 151.532 15.5079 150.606 16.9299 148.799L17.0693 148.6L17.7525 151.18H20.076V140.017H10.5958V143.834H14.9363L14.8805 144.005C14.2423 145.599 12.9333 146.395 10.9536 146.395C8.11422 146.395 6.64107 143.89 6.64107 141.444C6.64107 138.665 8.36517 136.77 10.9536 136.77C11.6071 136.749 12.2561 136.883 12.8475 137.161C13.4389 137.439 13.9557 137.853 14.3554 138.368L18.8631 135.32C17.9647 134.076 16.7762 133.067 15.3999 132.382C14.0237 131.697 12.5009 131.356 10.9629 131.388C5.30268 131.378 1.18063 135.594 1.18063 141.453Z" fill="white" stroke="#00AEEF" stroke-miterlimit="10"/>
<path d="M40.4768 151.398H33.9707L30.8525 145.075H28.9471V151.398H23.0127V131.48H31.0058C36.1874 131.466 39.0362 134.042 39.0362 138.641C39.0362 141.064 38.1067 142.81 36.3361 143.908L40.4768 151.398ZM34.1241 151.18H40.0585L35.9923 143.806L36.0759 143.75C37.8837 142.75 38.7759 141.041 38.7759 138.655C38.7759 134.185 36.0201 131.735 31.0058 131.735H23.2358V151.189H28.6962V144.82H31.0198L34.1241 151.18ZM28.6962 140.526V136.765H31.0198C32.5533 136.765 33.2783 137.395 33.2783 138.646C33.2783 139.896 32.5301 140.526 31.0058 140.526H28.6962ZM28.9471 140.267H31.0058C32.3721 140.267 33.0413 139.757 33.0413 138.646C33.0413 137.534 32.4 137.025 31.0058 137.025H28.9471V140.267Z" fill="white" stroke="#00AEEF" stroke-miterlimit="10"/>
<path d="M40.8398 141.453C40.8398 135.468 45.0734 131.142 50.8638 131.142C56.6542 131.142 60.8785 135.431 60.8785 141.453C60.8785 147.475 56.6728 151.787 50.8545 151.787C45.0362 151.787 40.8398 147.414 40.8398 141.453ZM41.0908 141.453C41.0908 147.289 45.2128 151.532 50.8499 151.532C56.4869 151.532 60.6508 147.289 60.6508 141.453C60.6508 135.617 56.5287 131.397 50.8499 131.397C45.171 131.397 41.0908 135.593 41.0908 141.453ZM46.5466 141.453C46.5466 138.674 48.2753 136.779 50.8638 136.779C53.4523 136.779 55.2089 138.66 55.2089 141.453C55.2089 144.246 53.443 146.131 50.8638 146.131C48.2846 146.131 46.5466 144.232 46.5466 141.453ZM46.7975 141.453C46.7975 144.098 48.4426 145.895 50.8638 145.895C53.285 145.895 54.958 144.098 54.958 141.453C54.958 138.808 53.3129 137.039 50.8638 137.039C48.4147 137.039 46.7975 138.785 46.7975 141.453Z" fill="white" stroke="#00AEEF" stroke-miterlimit="10"/>
<path d="M63.2578 143.255V131.466H69.1876V142.768C69.1876 144.793 70.117 145.877 71.8923 145.877C73.6675 145.877 74.6202 144.793 74.6202 142.768V131.466H80.55V143.255C80.55 148.836 77.5711 151.768 71.8923 151.768C66.2134 151.768 63.2578 148.836 63.2578 143.255ZM63.4809 131.721V143.255C63.4809 148.665 66.404 151.514 71.8923 151.514C77.3806 151.514 80.299 148.665 80.299 143.255V131.726H74.8711V142.773C74.8711 144.941 73.8115 146.136 71.8923 146.136C69.973 146.136 68.9367 144.941 68.9367 142.773V131.726L63.4809 131.721Z" fill="white" stroke="#00AEEF" stroke-miterlimit="10"/>
<path d="M89.5187 151.398H83.5889V131.48H91.6052C96.7171 131.48 99.6263 134.185 99.6263 138.891C99.6263 143.421 96.838 145.811 91.6052 145.811H89.5187V151.398ZM83.8398 151.18H89.2956V145.561H91.6192C95.1557 145.561 99.3893 144.422 99.3893 138.896C99.3893 134.343 96.5498 131.721 91.6192 131.721H83.8398V151.18ZM89.2956 141.04V136.77H91.6192C93.0412 136.77 93.8777 137.566 93.8777 138.905C93.8777 140.244 93.0412 141.04 91.6192 141.04H89.2956ZM89.5187 140.786H91.6052C92.8879 140.786 93.6128 140.105 93.6128 138.905C93.6128 137.705 92.86 137.029 91.6052 137.029H89.5187V140.786Z" fill="white" stroke="#00AEEF" stroke-miterlimit="10"/>
</g>
<defs>
<clipPath id="clip0_1726_1173">
<rect width="103" height="152" fill="white"/>
</clipPath>
</defs>
</svg>
