<svg width="100" height="148" viewBox="0 0 100 148" fill="none" xmlns="http://www.w3.org/2000/svg">
<path d="M14.2928 113.216L18.4164 115.908C17.4571 117.143 16.2188 118.136 14.8017 118.808C13.3846 119.479 11.8285 119.808 10.2594 119.77C4.29506 119.77 0 115.37 0 109.453C0 103.536 4.29506 99.1708 10.2594 99.1708C11.8256 99.1339 13.3788 99.4614 14.7951 100.127C16.2113 100.793 17.4514 101.779 18.4164 103.006L14.2928 105.675C13.8056 105.087 13.1878 104.619 12.488 104.307C11.7882 103.996 11.0254 103.85 10.2594 103.881C6.76743 103.85 4.96278 106.631 4.96278 109.444C4.96278 112.256 6.76743 115.069 10.2639 115.069C11.0347 115.097 11.8014 114.944 12.5015 114.622C13.2016 114.3 13.8153 113.819 14.2928 113.216Z" fill="white"/>
<path d="M25.5038 99.5028V119.384H20.5771V99.5028H25.5038Z" fill="white"/>
<path d="M40.4014 119.384L36.9952 112.741H33.8912V119.384H28.96V99.5028H36.7109C41.8406 99.5028 44.4664 102.396 44.4664 106.375C44.4917 107.452 44.2136 108.515 43.6635 109.443C43.1134 110.372 42.3132 111.128 41.3534 111.628L45.6439 119.384H40.4014ZM33.8912 108.65H36.7109C38.1546 108.65 39.4811 108.08 39.4811 106.375C39.4811 104.899 38.3577 104.101 36.7109 104.101H33.8912V108.65Z" fill="white"/>
<path d="M64.9675 115.693L66.7721 117.456L64.1464 120.013L62.2605 118.151C60.5728 119.215 58.61 119.767 56.612 119.739C50.6476 119.739 46.3525 115.338 46.3525 109.421C46.3525 103.504 50.6476 99.1394 56.612 99.1394C62.5763 99.1394 66.8714 103.54 66.8714 109.421C66.9052 111.657 66.2399 113.849 64.9675 115.693ZM58.773 114.67L56.2646 112.198L58.8858 109.641L61.3627 112.113C61.7467 111.267 61.9437 110.349 61.9402 109.421C61.9402 106.609 60.1355 103.827 56.639 103.827C53.1425 103.827 51.3379 106.609 51.3379 109.421C51.3379 112.234 53.1425 115.047 56.639 115.047C57.3638 115.059 58.084 114.931 58.7595 114.67H58.773Z" fill="white"/>
<path d="M82.1112 114.813V119.384H69.623V99.5028H74.5858V114.813H82.1112Z" fill="white"/>
<path d="M97.37 114.813V119.384H84.6924V99.5028H97.1129V104.101H89.6191V107.169H96.188V111.516H89.6191V114.813H97.37Z" fill="white"/>
<path d="M59.9507 42.2666L57.8438 40.2389L77.546 19.9804C77.6798 19.8424 77.8396 19.732 78.0164 19.6554C78.1932 19.5789 78.3834 19.5378 78.5762 19.5345C78.7689 19.5312 78.9605 19.5657 79.1398 19.636C79.3191 19.7064 79.4828 19.8112 79.6213 19.9445L100 39.5346L97.9611 41.6341L78.6378 23.0488L59.9507 42.2666Z" fill="white"/>
<path d="M84.8775 38.1825L82.8389 40.2786L91.3328 48.4458L93.3714 46.3497L84.8775 38.1825Z" fill="white"/>
<path d="M66.628 48.686L64.5166 46.6583L77.6003 33.2005C77.8703 32.9231 78.24 32.7635 78.6282 32.7568C79.0165 32.7501 79.3915 32.8967 79.6711 33.1646L84.8775 38.1709L82.8428 40.2703L78.6876 36.2734L66.628 48.686Z" fill="white"/>
<path d="M96.5273 38.9234L90.2422 45.3858L92.3503 47.4128L98.6354 40.9504L96.5273 38.9234Z" fill="white"/>
<path d="M61.1314 39.3792L59.0928 41.4753L65.5921 47.7247L67.6307 45.6286L61.1314 39.3792Z" fill="white"/>
<path d="M44.9494 83.2726C36.7425 83.2686 28.7178 80.8667 21.8725 76.3654C15.0272 71.8641 9.66313 65.4619 6.44695 57.9545C3.23077 50.4471 2.30429 42.1654 3.78264 34.1387C5.26099 26.1121 9.079 18.6943 14.7622 12.8074C18.5605 8.85005 23.1106 5.68123 28.149 3.48436C33.1874 1.2875 38.614 0.106231 44.1147 0.00895737C56.2961 -0.224312 66.9616 4.08668 74.9065 12.5203C75.2469 12.8805 75.4364 13.3561 75.4364 13.8503C75.4364 14.3446 75.2469 14.8202 74.9065 15.1804L68.1391 22.3221C67.9634 22.5092 67.7521 22.6599 67.5174 22.7654C67.2828 22.8709 67.0295 22.9291 66.7721 22.9366C66.2429 22.9393 65.7339 22.7347 65.3554 22.3669C60.9477 17.9722 55.1965 15.1581 49.0054 14.3668C42.8143 13.5755 36.5343 14.8518 31.152 17.9952C25.7698 21.1386 21.5904 25.9709 19.2705 31.7329C16.9507 37.4948 16.6218 43.8599 18.3357 49.8278C20.0496 55.7958 23.709 61.0285 28.739 64.7037C33.7689 68.3789 39.8844 70.2883 46.1245 70.132C52.3645 69.9756 58.3755 67.7623 63.2129 63.8398C68.0503 59.9173 71.4399 54.5079 72.8492 48.4617C72.9299 48.1104 73.1081 47.7886 73.3636 47.5331L77.609 43.2669C77.9741 42.9001 78.4705 42.692 78.9895 42.6883C79.245 42.688 79.498 42.7377 79.7341 42.8347C79.9702 42.9317 80.1848 43.074 80.3656 43.2535L85.4592 48.2867C85.6895 48.5146 85.8592 48.7959 85.9529 49.1052C86.0466 49.4145 86.0615 49.7422 85.9961 50.0587C84.0722 59.295 79.0525 67.6086 71.7582 73.639C64.4638 79.6694 55.327 83.0596 45.8427 83.2547L44.9494 83.2726ZM45.1028 3.87136C44.8005 3.87136 44.4982 3.87136 44.2005 3.87136C36.6876 4.01895 29.3877 6.37999 23.2253 10.6555C17.0629 14.931 12.3151 20.9287 9.58312 27.889C6.85118 34.8493 6.25799 42.4592 7.87868 49.7549C9.49936 57.0507 13.261 63.7041 18.6873 68.8727C25.4494 75.3225 34.3711 79.0587 43.7365 79.3626C53.1019 79.6665 62.2497 76.5167 69.4204 70.5191C75.6637 65.2839 80.0509 58.1933 81.9356 50.2919L78.9941 47.385L76.5127 49.8792C74.8099 56.674 70.9024 62.7214 65.395 67.0857C59.8875 71.4501 53.087 73.8881 46.0457 74.0226H45.378C36.9436 73.9954 28.8593 70.6667 22.8748 64.7571C16.8902 58.8474 13.487 50.8322 13.4016 42.4462C13.3162 34.0602 16.5555 25.9781 22.4184 19.9491C28.2813 13.9202 36.2962 10.4295 44.7283 10.2324C52.7907 10.0383 60.6259 12.8992 66.6458 18.2354L70.7694 13.8705C63.9568 7.34797 55.1366 3.8893 45.1163 3.8893L45.1028 3.87136Z" fill="white"/>
<path d="M0.902344 136.992C0.902344 131.16 5.01243 126.988 10.6339 126.988C12.1906 126.96 13.7303 127.313 15.1168 128.018C16.5033 128.722 17.694 129.755 18.5834 131.026L18.6646 131.133L13.8823 134.332L13.8011 134.251C13.4429 133.755 12.9673 133.355 12.4164 133.086C11.8656 132.817 11.2564 132.687 10.6429 132.708C8.2653 132.708 6.6727 134.417 6.6727 136.983C6.6727 139.226 8.04875 141.532 10.6429 141.532C12.4025 141.532 13.5665 140.868 14.1575 139.544H10.0519V135.381H19.6932V146.632H17.072L16.4764 144.425C15.0688 146.107 13.1243 146.991 10.6113 146.991C5.01243 146.982 0.902344 142.765 0.902344 136.992ZM1.14597 136.992C1.14597 142.644 5.14778 146.753 10.6204 146.753C13.1108 146.753 15.0553 145.856 16.4358 144.107L16.5712 143.914L17.2344 146.412H19.4902V135.601H10.2865V139.298H14.5004L14.4462 139.464C13.8266 141.007 12.5559 141.778 10.6339 141.778C7.8773 141.778 6.44712 139.351 6.44712 136.983C6.44712 134.291 8.12093 132.457 10.6339 132.457C11.2683 132.436 11.8984 132.566 12.4725 132.835C13.0466 133.104 13.5484 133.505 13.9364 134.004L18.3127 131.052C17.4405 129.847 16.2866 128.871 14.9505 128.207C13.6144 127.544 12.1361 127.213 10.6429 127.244C5.14778 127.235 1.14597 131.317 1.14597 136.992Z" fill="white" stroke="white" stroke-miterlimit="10"/>
<path d="M39.2965 146.623H32.9802L29.9529 140.5H28.1031V146.623H22.3418V127.334H30.1018C35.1322 127.32 37.8979 129.814 37.8979 134.269C37.8979 136.615 36.9955 138.306 35.2766 139.369L39.2965 146.623ZM33.1291 146.412H38.8904L34.9427 139.271L35.024 139.217C36.779 138.248 37.6452 136.593 37.6452 134.282C37.6452 129.953 34.9698 127.58 30.1018 127.58H22.5584V146.421H27.8595V140.253H30.1153L33.1291 146.412ZM27.8595 136.095V132.452H30.1153C31.6041 132.452 32.308 133.062 32.308 134.273C32.308 135.485 31.5816 136.095 30.1018 136.095H27.8595ZM28.1031 135.843H30.1018C31.4282 135.843 32.0779 135.35 32.0779 134.273C32.0779 133.197 31.4553 132.703 30.1018 132.703H28.1031V135.843Z" fill="white" stroke="white" stroke-miterlimit="10"/>
<path d="M39.6484 136.992C39.6484 131.196 43.7585 127.006 49.38 127.006C55.0015 127.006 59.1025 131.16 59.1025 136.992C59.1025 142.824 55.0195 147 49.371 147C43.7224 147 39.6484 142.765 39.6484 136.992ZM39.8921 136.992C39.8921 142.644 43.8939 146.753 49.3665 146.753C54.8391 146.753 58.8815 142.644 58.8815 136.992C58.8815 131.34 54.8797 127.253 49.3665 127.253C43.8533 127.253 39.8921 131.317 39.8921 136.992ZM45.1887 136.992C45.1887 134.3 46.867 132.466 49.38 132.466C51.893 132.466 53.5984 134.287 53.5984 136.992C53.5984 139.697 51.8839 141.523 49.38 141.523C46.876 141.523 45.1887 139.683 45.1887 136.992ZM45.4323 136.992C45.4323 139.553 47.0294 141.294 49.38 141.294C51.7306 141.294 53.3547 139.553 53.3547 136.992C53.3547 134.43 51.7576 132.717 49.38 132.717C47.0024 132.717 45.4323 134.408 45.4323 136.992Z" fill="white" stroke="white" stroke-miterlimit="10"/>
<path d="M61.4121 138.737V127.32H67.1689V138.266C67.1689 140.226 68.0713 141.276 69.7947 141.276C71.5181 141.276 72.443 140.226 72.443 138.266V127.32H78.1998V138.737C78.1998 144.142 75.3079 146.982 69.7947 146.982C64.2815 146.982 61.4121 144.142 61.4121 138.737ZM61.6287 127.567V138.737C61.6287 143.976 64.4665 146.735 69.7947 146.735C75.1229 146.735 77.9562 143.976 77.9562 138.737V127.571H72.6866V138.27C72.6866 140.37 71.658 141.527 69.7947 141.527C67.9314 141.527 66.9253 140.37 66.9253 138.27V127.571L61.6287 127.567Z" fill="white" stroke="white" stroke-miterlimit="10"/>
<path d="M86.9072 146.623H81.1504V127.334H88.9329C93.8957 127.334 96.72 129.953 96.72 134.511C96.72 138.898 94.013 141.213 88.9329 141.213H86.9072V146.623ZM81.394 146.412H86.6907V140.971H88.9465C92.3798 140.971 96.4899 139.867 96.4899 134.516C96.4899 130.106 93.7333 127.567 88.9465 127.567H81.394V146.412ZM86.6907 136.593V132.457H88.9465C90.327 132.457 91.1391 133.228 91.1391 134.525C91.1391 135.821 90.327 136.593 88.9465 136.593H86.6907ZM86.9072 136.346H88.9329C90.1781 136.346 90.882 135.686 90.882 134.525C90.882 133.363 90.1511 132.708 88.9329 132.708H86.9072V136.346Z" fill="white" stroke="white" stroke-miterlimit="10"/>
</svg>
